<?xml version="1.0" standalone="no"?>
<!DOCTYPE svg PUBLIC "-//W3C//DTD SVG 20010904//EN"
 "http://www.w3.org/TR/2001/REC-SVG-20010904/DTD/svg10.dtd">
<svg version="1.0" xmlns="http://www.w3.org/2000/svg"
 width="226.000000pt" height="226.000000pt" viewBox="0 0 226.000000 226.000000"
 preserveAspectRatio="xMidYMid meet">
<metadata>
Created by potrace 1.14, written by Peter Selinger 2001-2017
</metadata>
<g transform="translate(0.000000,226.000000) scale(0.100000,-0.100000)"
fill="#000000" stroke="none">
<path d="M25 1393 c1 -302 5 -559 8 -573 4 -14 9 -38 13 -55 42 -207 178 -360
374 -420 78 -24 255 -28 349 -8 95 20 208 67 299 126 74 48 172 136 172 154 0
11 -76 153 -89 166 -5 5 -24 -6 -42 -23 -52 -48 -140 -98 -231 -132 -73 -27
-91 -29 -155 -24 -177 14 -274 119 -300 326 -5 36 -8 278 -8 538 l0 472 -196
0 -196 0 2 -547z"/>
<path d="M980 1815 l0 -125 33 -1 c294 -4 347 -3 348 9 1 16 1 219 0 232 -1 6
-72 10 -191 10 l-190 0 0 -125z"/>
<path d="M1448 1485 l-3 -455 -48 65 c-141 190 -360 420 -547 576 -102 84
-330 249 -345 249 -8 0 -6 -264 3 -275 4 -5 44 -43 90 -84 358 -318 638 -705
822 -1133 l33 -78 193 0 194 0 0 670 0 670 183 -1 c100 0 192 0 203 0 21 1 22
5 22 126 l1 125 -400 0 -399 0 -2 -455z"/>
</g>
</svg>
